<?xml version="1.0" encoding="utf-8"?>
<!-- Generator: Adobe Illustrator 25.4.1, SVG Export Plug-In . SVG Version: 6.00 Build 0)  -->
<svg version="1.1" id="图层_1" xmlns="http://www.w3.org/2000/svg" xmlns:xlink="http://www.w3.org/1999/xlink" x="0px" y="0px"
	 viewBox="0 0 364 56" style="enable-background:new 0 0 364 56;" xml:space="preserve">
<style type="text/css">
	.st0{fill:none;}
	.st1{fill-rule:evenodd;clip-rule:evenodd;fill:#FFFFFF;}
	.st2{fill:#FFFFFF;}
	.st3{fill-rule:evenodd;clip-rule:evenodd;fill:#EEEEEE;}
	.st4{fill-rule:evenodd;clip-rule:evenodd;fill:#888888;}
	.st5{fill-rule:evenodd;clip-rule:evenodd;fill:#3182F6;}
	.st6{fill-rule:evenodd;clip-rule:evenodd;fill:#4BAAF4;}
	.st7{fill-rule:evenodd;clip-rule:evenodd;fill:#0B79CB;}
	.st8{fill-rule:evenodd;clip-rule:evenodd;fill:#1F9832;}
	.st9{fill-rule:evenodd;clip-rule:evenodd;fill:#333333;}
	.st10{fill-rule:evenodd;clip-rule:evenodd;fill:#EC0117;}
	.st11{fill-rule:evenodd;clip-rule:evenodd;fill:#0098E6;}
	.st12{fill-rule:evenodd;clip-rule:evenodd;fill:#4862A3;}
	.st13{fill-rule:evenodd;clip-rule:evenodd;fill:#0D9DD4;}
	.st14{fill-rule:evenodd;clip-rule:evenodd;fill:#00B500;}
	.st15{fill-rule:evenodd;clip-rule:evenodd;fill:#4A90E2;}
	.st16{fill-rule:evenodd;clip-rule:evenodd;fill:#0077B9;}
</style>
<g>
	<path class="st0" d="M3,0h22c1.7,0,3,1.3,3,3v22c0,1.7-1.3,3-3,3H3c-1.7,0-3-1.3-3-3V3C0,1.3,1.3,0,3,0z"/>
	<g>
		<path class="st1" d="M13.8,13.2h7.4l-0.1,2.4h-7.3V13.2z"/>
		<path class="st1" d="M21.9,13.2L21.9,13.2c0.8,6.2-3.3,9.8-8.1,9.7c-4.8,0-8.7-4-8.7-8.9C5,9,8.9,5,13.7,5c2.5,0,4.6,0.9,6.1,2.5
			l-1.7,1.7c-1.1-1.1-2.6-1.7-4.3-1.7c-3.5,0-6.3,2.9-6.3,6.5c0,3.6,2.8,6.5,6.3,6.5c3.5,0,5.9-2.1,5.9-6.5c0-0.3,0-0.5,0-0.8
			C19.7,13.2,21.9,13.2,21.9,13.2z"/>
	</g>
	<g transform="translate(112)">
		<path class="st2" d="M3,0h22c1.7,0,3,1.3,3,3v22c0,1.7-1.3,3-3,3H3c-1.7,0-3-1.3-3-3V3C0,1.3,1.3,0,3,0z"/>
		<path class="st1" d="M10.3,22.7C8,22.7,5.8,22,4,20.8c2.2,0.3,4.4-0.4,6.1-1.7c-1.8,0-3.3-1.3-3.8-2.9c0.6,0.1,1.2,0.1,1.9-0.1
			c-1.9-0.4-3.3-2.1-3.3-4.1v-0.1c0.6,0.3,1.2,0.5,1.9,0.5c-1.1-0.8-1.8-2.1-1.8-3.5c0-0.8,0.2-1.5,0.6-2.1c2,2.5,5,4.2,8.5,4.4
			c-0.1-0.3-0.1-0.6-0.1-1c0-2.3,1.8-4.2,4.1-4.2c1.2,0,2.2,0.5,3,1.3c0.9-0.2,1.8-0.5,2.6-1c-0.3,1-0.9,1.8-1.8,2.3
			C22.5,8.5,23.3,8.3,24,8c-0.5,0.8-1.2,1.6-2,2.2c0,0.2,0,0.4,0,0.5C22,16.3,17.8,22.7,10.3,22.7"/>
	</g>
	<g transform="translate(168)">
		<path class="st0" d="M3,0h22c1.7,0,3,1.3,3,3v22c0,1.7-1.3,3-3,3H3c-1.7,0-3-1.3-3-3V3C0,1.3,1.3,0,3,0z"/>
		<path class="st1" d="M12.4,5c0.1,0.5,0.1,1,0.1,1.7c0,4.7-1,8-3.4,10.9C7.9,19.1,6.9,19.9,5,21c0.7,0.6,1,1.1,1.5,2
			c1.3-0.9,1.9-1.3,2.9-2.3c1.3-1.3,2.1-2.4,2.9-3.8c0.8-1.5,1.1-2.4,1.5-4c0.6,2.3,1.3,3.8,2.5,5.4c1.3,1.9,2.5,3,4.7,4.7
			c0.4-1,0.7-1.4,1.5-2.2c-1.2-0.7-1.8-1.1-2.9-2.1c-1.3-1.2-2.1-2.3-3-3.8c-1.3-2.5-1.8-4.6-1.8-8c0-0.5,0.1-1.6,0.1-1.8
			C14.8,5,12.4,5,12.4,5z"/>
	</g>
	<g transform="translate(224)">
		<path class="st0" d="M3,0h22c1.7,0,3,1.3,3,3v22c0,1.7-1.3,3-3,3H3c-1.7,0-3-1.3-3-3V3C0,1.3,1.3,0,3,0z"/>
		<path class="st1" d="M6.6,6h14.9v1.7H6.6V6z M7.9,16.4h12.3V9.6H7.9L7.9,16.4L7.9,16.4z M9.7,11.3h8.7v3.3H9.7
			C9.7,14.6,9.7,11.3,9.7,11.3z M17.5,20.3c0.5-0.9,1-1.8,1.5-3l-1.8-0.7c-0.4,1.3-1,2.5-1.6,3.6h-3.1c-0.5-1.4-1.1-2.6-1.8-3.6
			l-1.6,0.7c0.6,0.9,1.2,1.9,1.6,3H6.2V22h15.7v-1.7H17.5z"/>
	</g>
	<g transform="translate(28)">
		<path class="st0" d="M3,0h22c1.7,0,3,1.3,3,3v22c0,1.7-1.3,3-3,3H3c-1.7,0-3-1.3-3-3V3C0,1.3,1.3,0,3,0z"/>
		<path class="st1" d="M23,14.2C23,9.1,19,5,14,5s-9,4.1-9,9.2c0,4.1,2.6,7.5,6.2,8.8c0.5,0.1,0.6-0.2,0.6-0.4c0-0.2,0-1,0-1.7
			c0,0-2.5,0.6-3-1.1c0,0-0.4-1.1-1-1.3c0,0-0.8-0.6,0.1-0.6c0,0,0.9,0.1,1.4,1c0.8,1.4,2.1,1,2.6,0.8c0.1-0.6,0.3-1,0.6-1.2
			c-2-0.2-4.1-1-4.1-4.6c0-1,0.4-1.8,0.9-2.5C9.1,11,8.8,10.1,9.3,8.8c0.8-0.2,2.5,0.9,2.5,0.9c1.5-0.4,3-0.4,4.5,0
			c0,0,1.7-1.2,2.5-0.9c0.5,1.3,0.2,2.2,0.1,2.5c0.6,0.6,0.9,1.5,0.9,2.5c0,3.5-2.1,4.3-4.1,4.6c0.3,0.3,0.6,0.8,0.6,1.7v2.5
			c0,0.2,0.2,0.5,0.6,0.4C20.4,21.8,23,18.3,23,14.2z"/>
	</g>
	<g transform="translate(56)">
		<path class="st0" d="M3,0h22c1.7,0,3,1.3,3,3v22c0,1.7-1.3,3-3,3H3c-1.7,0-3-1.3-3-3V3C0,1.3,1.3,0,3,0z"/>
		<path class="st1" d="M11.5,18.4c-0.3,0.5-1,0.7-1.5,0.5c-0.5-0.2-0.7-0.8-0.3-1.3c0.3-0.5,1-0.7,1.5-0.5
			C11.7,17.3,11.8,17.9,11.5,18.4L11.5,18.4z M12.6,17.1c-0.1,0.2-0.4,0.3-0.6,0.2c-0.2-0.1-0.3-0.3-0.1-0.5
			c0.1-0.2,0.3-0.3,0.6-0.2C12.6,16.7,12.7,16.9,12.6,17.1z M14.5,18.3c0.7-1.5-0.2-3-1.8-3.5c-1.6-0.4-3.3,0.4-4,1.8
			c-0.7,1.4,0,3,1.6,3.5C11.9,20.6,13.9,19.8,14.5,18.3z M18,16.5c0.2,2.2-2.3,4.2-5.6,4.5c-3.3,0.3-6.2-1.2-6.4-3.3
			s2.3-4.2,5.6-4.5C14.9,12.8,17.8,14.3,18,16.5z M21.4,16.5c0-1.5-1.3-2.4-2.4-2.7c-0.3-0.1-0.5-0.1-0.3-0.5c0.3-0.8,0.3-1.5,0-2
			c-0.6-0.9-2.4-0.9-4.5,0c0,0-0.6,0.3-0.5-0.2c0.3-1,0.3-1.9-0.2-2.3c-1.1-1.1-4,0-6.6,2.6c-1.9,1.9-3,3.9-3,5.6
			c0,3.3,4.2,5.3,8.4,5.3C17.8,22.2,21.4,19,21.4,16.5L21.4,16.5z M20.6,9.6c-0.6-0.7-1.6-1-2.5-0.8c-0.4,0.1-0.6,0.4-0.5,0.8
			c0,0,0,0,0,0c0.1,0.4,0.4,0.6,0.8,0.5c0.7-0.1,1.4,0.3,1.5,1c0,0.2,0,0.4,0,0.6c-0.1,0.3,0.1,0.7,0.4,0.8s0.7-0.1,0.8-0.4l0,0
			C21.4,11.2,21.3,10.3,20.6,9.6z M22.6,7.7c-1.3-1.5-3.2-2-5-1.6C17.2,6.2,16.9,6.6,17,7c0,0,0,0,0,0c0.1,0.4,0.5,0.7,0.9,0.6
			c1.3-0.3,2.7,0.2,3.6,1.2c0.9,1,1.2,2.4,0.8,3.7c-0.1,0.4,0.1,0.8,0.5,1c0.4,0.1,0.8-0.1,1-0.5c0,0,0,0,0,0
			C24.3,11.2,24,9.2,22.6,7.7z"/>
	</g>
	<g transform="translate(84)">
		<path class="st0" d="M3,0h22c1.7,0,3,1.3,3,3v22c0,1.7-1.3,3-3,3H3c-1.7,0-3-1.3-3-3V3C0,1.3,1.3,0,3,0z"/>
		<path class="st1" d="M7.5,13.1C6,14.3,5,15.8,5,17.8c0,0.4,0.1,0.7,0.2,1c0.1,0,0,0.1,0.1,0.1h0c0.6-0.1,1.1-0.6,1.3-1.1
			c0,0,0.1-0.2,0.1-0.2l0.1,0C7,18.3,8,20.1,8.7,20.2l0,0c0,0,0,0,0,0c-0.1,0-0.1,0-0.1,0c-0.4,0-0.6,0.2-0.9,0.3
			c-0.4,0.4-0.5,0.5-0.5,1.1c0,1.3,3,1.4,3.7,1.4c0.9,0,2.4-0.2,3-0.9c0.3,0,0.6,0,0.9,0.1c1.2,0.3,2.1,0.7,3.4,0.7
			c0.9,0,2.5-0.1,3-1c0.1-0.1,0.1-0.2,0.1-0.3c-0.2-1-1.1-0.9-1.7-1.5c0.7-0.6,1-1.4,1.3-2.2l0,0c0,0,0,0,0,0c0.1,0.3,0.6,1.2,1,1.2
			c0.6,0,0.8-1.2,0.8-1.6c0-1.6-0.8-3-1.6-4.2c0,0-0.1-0.1-0.1-0.1c0-0.2,0.2-0.5,0.2-0.8c0-0.5-0.3-1.1-0.6-1.5l0-0.1
			c-0.5-2.4-1-4.2-3.4-5.2C16.3,5.2,15.4,5,14.5,5c-1.1,0-2.2,0.2-3.3,0.7c-1.7,0.8-3.1,3.1-3.1,5c-0.2,0.2-0.3,0.7-0.3,1
			c-0.2,0.2-0.4,0.7-0.4,0.9C7.5,12.8,7.5,12.9,7.5,13.1z"/>
	</g>
	<g transform="translate(140)">
		<path class="st0" d="M3,0h22c1.7,0,3,1.3,3,3v22c0,1.7-1.3,3-3,3H3c-1.7,0-3-1.3-3-3V3C0,1.3,1.3,0,3,0z"/>
		<path class="st1" d="M19.4,4.1c-0.3,0-1.4-0.1-2.7-0.1c-2.7,0-4.6,1.7-4.6,4.7v2.6H9v3.6h3.1V24h3.7v-9.1h3.1l0.5-3.6h-3.5V9
			c0-1,0.3-1.7,1.8-1.7h1.9L19.4,4.1L19.4,4.1z"/>
	</g>
	<g transform="translate(196)">
		<path class="st0" d="M3,0h22c1.7,0,3,1.3,3,3v22c0,1.7-1.3,3-3,3H3c-1.7,0-3-1.3-3-3V3C0,1.3,1.3,0,3,0z"/>
		<path class="st1" d="M16.8,10.4c0-1.2-1-2.2-2.2-2.2c-1.2,0-2.2,1-2.2,2.2c0,0.3,0.1,0.6,0.2,0.9c-0.5,0.6-1,1.2-1.5,1.8
			c-1.4,2-2.9,5.5-2.5,10.4C8.7,23.8,9,24,9.2,24h0.1c0.3,0,0.5-0.3,0.5-0.6c-0.3-3.6,0.4-6.9,2.3-9.6c0.4-0.6,0.9-1.2,1.3-1.6
			c0.4,0.2,0.8,0.4,1.2,0.4C15.8,12.5,16.8,11.6,16.8,10.4z M21,10.5C21,6.9,18.1,4,14.5,4c0,0,0,0,0,0C10.9,4,8,6.9,8,10.5
			c0,1,0.2,2,0.7,3c0.1,0.3,0.5,0.4,0.8,0.3c0.3-0.1,0.4-0.5,0.2-0.8c-1.3-2.6-0.3-5.9,2.3-7.2c0.7-0.4,1.6-0.6,2.4-0.6
			c2.9,0,5.3,2.4,5.3,5.3s-2.4,5.3-5.3,5.3c-0.4,0-0.8,0-1.2-0.1c-0.3-0.1-0.6,0.1-0.7,0.4c-0.1,0.3,0.1,0.6,0.4,0.7
			c0.5,0.1,1,0.2,1.5,0.2C18.1,17,21,14.1,21,10.5z"/>
	</g>
	<g transform="translate(252)">
		<path class="st0" d="M3,0h22c1.7,0,3,1.3,3,3v22c0,1.7-1.3,3-3,3H3c-1.7,0-3-1.3-3-3V3C0,1.3,1.3,0,3,0z"/>
		<path class="st1" d="M9.2,9.3c0,0.6-0.4,1-1,1c-0.6,0-1.2-0.4-1.2-1c0-0.6,0.6-1,1.2-1C8.8,8.3,9.2,8.7,9.2,9.3z M17.2,14.8
			c0,0.4-0.4,0.8-1,0.8c-0.4,0-0.8-0.4-0.8-0.8c0-0.4,0.4-0.8,0.8-0.8C16.8,14,17.2,14.4,17.2,14.8z M14.7,9.3c0,0.6-0.4,1-1,1
			c-0.6,0-1.2-0.4-1.2-1c0-0.6,0.6-1,1.2-1C14.3,8.3,14.7,8.7,14.7,9.3z M21.5,14.8c0,0.4-0.4,0.8-1,0.8c-0.4,0-0.8-0.4-0.8-0.8
			c0-0.4,0.4-0.8,0.8-0.8C21.1,14,21.5,14.4,21.5,14.8z M18.6,10.5C18,7.3,14.6,5,10.8,5C6.5,5,3,7.9,3,11.6c0,2.1,1.2,3.9,3.1,5.3
			l-0.8,2.4l2.7-1.4c1,0.2,1.8,0.4,2.7,0.4c0.2,0,0.5,0,0.7,0c-0.2-0.5-0.2-1.1-0.2-1.6c0-3.4,2.9-6.2,6.6-6.2
			C18.1,10.4,18.4,10.5,18.6,10.5z M25,16.5c0-3.1-3.1-5.7-6.6-5.7c-3.7,0-6.6,2.5-6.6,5.7s2.9,5.7,6.6,5.7c0.8,0,1.6-0.2,2.3-0.4
			l2.1,1.2l-0.6-2C23.8,19.9,25,18.3,25,16.5z"/>
	</g>
	<g transform="translate(280)">
		<path class="st3" d="M3,0h22c1.7,0,3,1.3,3,3v22c0,1.7-1.3,3-3,3H3c-1.7,0-3-1.3-3-3V3C0,1.3,1.3,0,3,0z"/>
		<path class="st4" d="M8,16c1.1,0,2-0.9,2-2s-0.9-2-2-2s-2,0.9-2,2S6.9,16,8,16z M14,16c1.1,0,2-0.9,2-2s-0.9-2-2-2s-2,0.9-2,2
			S12.9,16,14,16z M20,16c1.1,0,2-0.9,2-2s-0.9-2-2-2s-2,0.9-2,2S18.9,16,20,16z"/>
	</g>
	<g transform="translate(0 28)">
		<path class="st0" d="M3,0h22c1.7,0,3,1.3,3,3v22c0,1.7-1.3,3-3,3H3c-1.7,0-3-1.3-3-3V3C0,1.3,1.3,0,3,0z"/>
		<g>
			<path class="st5" d="M13.8,13.2h7.4l-0.1,2.4h-7.3V13.2z"/>
			<path class="st5" d="M21.9,13.2L21.9,13.2c0.8,6.2-3.3,9.8-8.1,9.7c-4.8,0-8.7-4-8.7-8.9C5,9,8.9,5,13.7,5c2.5,0,4.6,0.9,6.1,2.5
				l-1.7,1.7c-1.1-1.1-2.6-1.7-4.3-1.7c-3.5,0-6.3,2.9-6.3,6.5c0,3.6,2.8,6.5,6.3,6.5c3.5,0,5.9-2.1,5.9-6.5c0-0.3,0-0.5,0-0.8
				C19.7,13.2,21.9,13.2,21.9,13.2z"/>
		</g>
	</g>
	<g transform="translate(280 28)">
		<path class="st0" d="M3,0h22c1.7,0,3,1.3,3,3v22c0,1.7-1.3,3-3,3H3c-1.7,0-3-1.3-3-3V3C0,1.3,1.3,0,3,0z"/>
		<path class="st4" d="M8,16c1.1,0,2-0.9,2-2s-0.9-2-2-2s-2,0.9-2,2S6.9,16,8,16z M14,16c1.1,0,2-0.9,2-2s-0.9-2-2-2s-2,0.9-2,2
			S12.9,16,14,16z M20,16c1.1,0,2-0.9,2-2s-0.9-2-2-2s-2,0.9-2,2S18.9,16,20,16z"/>
	</g>
	<g transform="translate(112 28)">
		<path class="st0" d="M3,0h22c1.7,0,3,1.3,3,3v22c0,1.7-1.3,3-3,3H3c-1.7,0-3-1.3-3-3V3C0,1.3,1.3,0,3,0z"/>
		<path class="st6" d="M10.3,22.7C8,22.7,5.8,22,4,20.8c2.2,0.3,4.4-0.4,6.1-1.7c-1.8,0-3.3-1.3-3.8-2.9c0.6,0.1,1.2,0.1,1.9-0.1
			c-1.9-0.4-3.3-2.1-3.3-4.1v-0.1c0.6,0.3,1.2,0.5,1.9,0.5c-1.1-0.8-1.8-2.1-1.8-3.5c0-0.8,0.2-1.5,0.6-2.1c2,2.5,5,4.2,8.5,4.4
			c-0.1-0.3-0.1-0.6-0.1-1c0-2.3,1.8-4.2,4.1-4.2c1.2,0,2.2,0.5,3,1.3c0.9-0.2,1.8-0.5,2.6-1c-0.3,1-0.9,1.8-1.8,2.3
			C22.5,8.5,23.3,8.3,24,8c-0.5,0.8-1.2,1.6-2,2.2c0,0.2,0,0.4,0,0.5C22,16.3,17.8,22.7,10.3,22.7"/>
	</g>
	<g transform="translate(168 28)">
		<path class="st0" d="M3,0h22c1.7,0,3,1.3,3,3v22c0,1.7-1.3,3-3,3H3c-1.7,0-3-1.3-3-3V3C0,1.3,1.3,0,3,0z"/>
		<path class="st7" d="M12.4,5c0.1,0.5,0.1,1,0.1,1.7c0,4.7-1,8-3.4,10.9C7.9,19.1,6.9,19.9,5,21c0.7,0.6,1,1.1,1.5,2
			c1.3-0.9,1.9-1.3,2.9-2.3c1.3-1.3,2.1-2.4,2.9-3.8c0.8-1.5,1.1-2.4,1.5-4c0.6,2.3,1.3,3.8,2.5,5.4c1.3,1.9,2.5,3,4.7,4.7
			c0.4-1,0.7-1.4,1.5-2.2c-1.2-0.7-1.8-1.1-2.9-2.1c-1.3-1.2-2.1-2.3-3-3.8c-1.3-2.5-1.8-4.6-1.8-8c0-0.5,0.1-1.6,0.1-1.8
			C14.8,5,12.4,5,12.4,5z"/>
	</g>
	<g transform="translate(224 28)">
		<path class="st0" d="M3,0h22c1.7,0,3,1.3,3,3v22c0,1.7-1.3,3-3,3H3c-1.7,0-3-1.3-3-3V3C0,1.3,1.3,0,3,0z"/>
		<path class="st8" d="M6.6,6h14.9v1.7H6.6V6z M7.9,16.4h12.3V9.6H7.9L7.9,16.4L7.9,16.4z M9.7,11.3h8.7v3.3H9.7
			C9.7,14.6,9.7,11.3,9.7,11.3z M17.5,20.3c0.5-0.9,1-1.8,1.5-3l-1.8-0.7c-0.4,1.3-1,2.5-1.6,3.6h-3.1c-0.5-1.4-1.1-2.6-1.8-3.6
			l-1.6,0.7c0.6,0.9,1.2,1.9,1.6,3H6.2V22h15.7v-1.7H17.5z"/>
	</g>
	<g transform="translate(28 28)">
		<path class="st0" d="M3,0h22c1.7,0,3,1.3,3,3v22c0,1.7-1.3,3-3,3H3c-1.7,0-3-1.3-3-3V3C0,1.3,1.3,0,3,0z"/>
		<path class="st9" d="M23,14.2C23,9.1,19,5,14,5s-9,4.1-9,9.2c0,4.1,2.6,7.5,6.2,8.8c0.5,0.1,0.6-0.2,0.6-0.4c0-0.2,0-1,0-1.7
			c0,0-2.5,0.6-3-1.1c0,0-0.4-1.1-1-1.3c0,0-0.8-0.6,0.1-0.6c0,0,0.9,0.1,1.4,1c0.8,1.4,2.1,1,2.6,0.8c0.1-0.6,0.3-1,0.6-1.2
			c-2-0.2-4.1-1-4.1-4.6c0-1,0.4-1.8,0.9-2.5C9.1,11,8.8,10.1,9.3,8.8c0.8-0.2,2.5,0.9,2.5,0.9c1.5-0.4,3-0.4,4.5,0
			c0,0,1.7-1.2,2.5-0.9c0.5,1.3,0.2,2.2,0.1,2.5c0.6,0.6,0.9,1.5,0.9,2.5c0,3.5-2.1,4.3-4.1,4.6c0.3,0.3,0.6,0.8,0.6,1.7v2.5
			c0,0.2,0.2,0.5,0.6,0.4C20.4,21.8,23,18.3,23,14.2z"/>
	</g>
	<g transform="translate(56 28)">
		<path class="st0" d="M3,0h22c1.7,0,3,1.3,3,3v22c0,1.7-1.3,3-3,3H3c-1.7,0-3-1.3-3-3V3C0,1.3,1.3,0,3,0z"/>
		<path class="st10" d="M11.5,18.4c-0.3,0.5-1,0.7-1.5,0.5c-0.5-0.2-0.7-0.8-0.3-1.3c0.3-0.5,1-0.7,1.5-0.5
			C11.7,17.3,11.8,17.9,11.5,18.4L11.5,18.4z M12.6,17.1c-0.1,0.2-0.4,0.3-0.6,0.2c-0.2-0.1-0.3-0.3-0.1-0.5
			c0.1-0.2,0.3-0.3,0.6-0.2C12.6,16.7,12.7,16.9,12.6,17.1z M14.5,18.3c0.7-1.5-0.2-3-1.8-3.5c-1.6-0.4-3.3,0.4-4,1.8
			c-0.7,1.4,0,3,1.6,3.5C11.9,20.6,13.9,19.8,14.5,18.3z M18,16.5c0.2,2.2-2.3,4.2-5.6,4.5c-3.3,0.3-6.2-1.2-6.4-3.3
			s2.3-4.2,5.6-4.5C14.9,12.8,17.8,14.3,18,16.5z M21.4,16.5c0-1.5-1.3-2.4-2.4-2.7c-0.3-0.1-0.5-0.1-0.3-0.5c0.3-0.8,0.3-1.5,0-2
			c-0.6-0.9-2.4-0.9-4.5,0c0,0-0.6,0.3-0.5-0.2c0.3-1,0.3-1.9-0.2-2.3c-1.1-1.1-4,0-6.6,2.6c-1.9,1.9-3,3.9-3,5.6
			c0,3.3,4.2,5.3,8.4,5.3C17.8,22.2,21.4,19,21.4,16.5L21.4,16.5z M20.6,9.6c-0.6-0.7-1.6-1-2.5-0.8c-0.4,0.1-0.6,0.4-0.5,0.8
			c0,0,0,0,0,0c0.1,0.4,0.4,0.6,0.8,0.5c0.7-0.1,1.4,0.3,1.5,1c0,0.2,0,0.4,0,0.6c-0.1,0.3,0.1,0.7,0.4,0.8s0.7-0.1,0.8-0.4l0,0
			C21.4,11.2,21.3,10.3,20.6,9.6z M22.6,7.7c-1.3-1.5-3.2-2-5-1.6C17.2,6.2,16.9,6.6,17,7c0,0,0,0,0,0c0.1,0.4,0.5,0.7,0.9,0.6
			c1.3-0.3,2.7,0.2,3.6,1.2c0.9,1,1.2,2.4,0.8,3.7c-0.1,0.4,0.1,0.8,0.5,1c0.4,0.1,0.8-0.1,1-0.5c0,0,0,0,0,0
			C24.3,11.2,24,9.2,22.6,7.7z"/>
	</g>
	<g transform="translate(84 28)">
		<path class="st0" d="M3,0h22c1.7,0,3,1.3,3,3v22c0,1.7-1.3,3-3,3H3c-1.7,0-3-1.3-3-3V3C0,1.3,1.3,0,3,0z"/>
		<path class="st11" d="M7.5,13.1C6,14.3,5,15.8,5,17.8c0,0.4,0.1,0.7,0.2,1c0.1,0,0,0.1,0.1,0.1h0c0.6-0.1,1.1-0.6,1.3-1.1
			c0,0,0.1-0.2,0.1-0.2l0.1,0C7,18.3,8,20.1,8.7,20.2l0,0c0,0,0,0,0,0c-0.1,0-0.1,0-0.1,0c-0.4,0-0.6,0.2-0.9,0.3
			c-0.4,0.4-0.5,0.5-0.5,1.1c0,1.3,3,1.4,3.7,1.4c0.9,0,2.4-0.2,3-0.9c0.3,0,0.6,0,0.9,0.1c1.2,0.3,2.1,0.7,3.4,0.7
			c0.9,0,2.5-0.1,3-1c0.1-0.1,0.1-0.2,0.1-0.3c-0.2-1-1.1-0.9-1.7-1.5c0.7-0.6,1-1.4,1.3-2.2l0,0c0,0,0,0,0,0c0.1,0.3,0.6,1.2,1,1.2
			c0.6,0,0.8-1.2,0.8-1.6c0-1.6-0.8-3-1.6-4.2c0,0-0.1-0.1-0.1-0.1c0-0.2,0.2-0.5,0.2-0.8c0-0.5-0.3-1.1-0.6-1.5l0-0.1
			c-0.5-2.4-1-4.2-3.4-5.2C16.3,5.2,15.4,5,14.5,5c-1.1,0-2.2,0.2-3.3,0.7c-1.7,0.8-3.1,3.1-3.1,5c-0.2,0.2-0.3,0.7-0.3,1
			c-0.2,0.2-0.4,0.7-0.4,0.9C7.5,12.8,7.5,12.9,7.5,13.1z"/>
	</g>
	<g transform="translate(140 28)">
		<path class="st0" d="M3,0h22c1.7,0,3,1.3,3,3v22c0,1.7-1.3,3-3,3H3c-1.7,0-3-1.3-3-3V3C0,1.3,1.3,0,3,0z"/>
		<path class="st12" d="M19.4,4.1c-0.3,0-1.4-0.1-2.7-0.1c-2.7,0-4.6,1.7-4.6,4.7v2.6H9v3.6h3.1V24h3.7v-9.1h3.1l0.5-3.6h-3.5V9
			c0-1,0.3-1.7,1.8-1.7h1.9L19.4,4.1L19.4,4.1z"/>
	</g>
	<g transform="translate(196 28)">
		<path class="st0" d="M3,0h22c1.7,0,3,1.3,3,3v22c0,1.7-1.3,3-3,3H3c-1.7,0-3-1.3-3-3V3C0,1.3,1.3,0,3,0z"/>
		<path class="st13" d="M16.8,10.4c0-1.2-1-2.2-2.2-2.2c-1.2,0-2.2,1-2.2,2.2c0,0.3,0.1,0.6,0.2,0.9c-0.5,0.6-1,1.2-1.5,1.8
			c-1.4,2-2.9,5.5-2.5,10.4C8.7,23.8,9,24,9.2,24h0.1c0.3,0,0.5-0.3,0.5-0.6c-0.3-3.6,0.4-6.9,2.3-9.6c0.4-0.6,0.9-1.2,1.3-1.6
			c0.4,0.2,0.8,0.4,1.2,0.4C15.8,12.5,16.8,11.6,16.8,10.4z M21,10.5C21,6.9,18.1,4,14.5,4c0,0,0,0,0,0C10.9,4,8,6.9,8,10.5
			c0,1,0.2,2,0.7,3c0.1,0.3,0.5,0.4,0.8,0.3c0.3-0.1,0.4-0.5,0.2-0.8c-1.3-2.6-0.3-5.9,2.3-7.2c0.7-0.4,1.6-0.6,2.4-0.6
			c2.9,0,5.3,2.4,5.3,5.3s-2.4,5.3-5.3,5.3c-0.4,0-0.8,0-1.2-0.1c-0.3-0.1-0.6,0.1-0.7,0.4c-0.1,0.3,0.1,0.6,0.4,0.7
			c0.5,0.1,1,0.2,1.5,0.2C18.1,17,21,14.1,21,10.5z"/>
	</g>
	<g transform="translate(252 28)">
		<path class="st0" d="M3,0h22c1.7,0,3,1.3,3,3v22c0,1.7-1.3,3-3,3H3c-1.7,0-3-1.3-3-3V3C0,1.3,1.3,0,3,0z"/>
		<path class="st14" d="M9.2,9.3c0,0.6-0.4,1-1,1c-0.6,0-1.2-0.4-1.2-1c0-0.6,0.6-1,1.2-1C8.8,8.3,9.2,8.7,9.2,9.3z M17.2,14.8
			c0,0.4-0.4,0.8-1,0.8c-0.4,0-0.8-0.4-0.8-0.8c0-0.4,0.4-0.8,0.8-0.8C16.8,14,17.2,14.4,17.2,14.8z M14.7,9.3c0,0.6-0.4,1-1,1
			c-0.6,0-1.2-0.4-1.2-1c0-0.6,0.6-1,1.2-1C14.3,8.3,14.7,8.7,14.7,9.3z M21.5,14.8c0,0.4-0.4,0.8-1,0.8c-0.4,0-0.8-0.4-0.8-0.8
			c0-0.4,0.4-0.8,0.8-0.8C21.1,14,21.5,14.4,21.5,14.8z M18.6,10.5C18,7.3,14.6,5,10.8,5C6.5,5,3,7.9,3,11.6c0,2.1,1.2,3.9,3.1,5.3
			l-0.8,2.4l2.7-1.4c1,0.2,1.8,0.4,2.7,0.4c0.2,0,0.5,0,0.7,0c-0.2-0.5-0.2-1.1-0.2-1.6c0-3.4,2.9-6.2,6.6-6.2
			C18.1,10.4,18.4,10.5,18.6,10.5z M25,16.5c0-3.1-3.1-5.7-6.6-5.7c-3.7,0-6.6,2.5-6.6,5.7s2.9,5.7,6.6,5.7c0.8,0,1.6-0.2,2.3-0.4
			l2.1,1.2l-0.6-2C23.8,19.9,25,18.3,25,16.5z"/>
	</g>
	<g transform="translate(308)">
		<path class="st0" d="M3,0h22c1.7,0,3,1.3,3,3v22c0,1.7-1.3,3-3,3H3c-1.7,0-3-1.3-3-3V3C0,1.3,1.3,0,3,0z"/>
		<path class="st1" d="M14,5c-5,0-9,4-9,9s4,9,9,9s9-4,9-9S19,5,14,5z M17.2,11.1c0.1-0.1,0.3-0.2,0.5-0.1c0.1,0,0.2,0.1,0.1,0.2
			c-0.1,0-0.2,0-0.3,0c0.1,0,0.3,0.1,0.2,0.2c0.3,0.2-0.1,0.4-0.3,0.4c0.1,0-0.2,0.2-0.2,0.2c-0.1,0.1-0.2,0.1-0.3,0.2
			c-0.1,0.1,0,0.4-0.1,0.3c-0.1,0.2-0.3,0.1-0.5,0.2c0.1,0.1-0.1,0.3-0.3,0.2c-0.1,0-0.1,0.2-0.2,0.2c0,0.1,0.1,0.1,0,0.2
			c0,0,0.2,0.1,0.2,0.1c0,0.1-0.1,0.1-0.1,0.1c0.1,0.2-0.1,0.3-0.2,0.4c-0.1,0.1-0.4,0.2-0.4,0.2c-0.2,0.2-0.4,0.5,0,0.6
			c0,0,0,0.4,0,0.4c0,0.1,0.1,0.6-0.2,0.4C15.1,15.3,15,15,15,14.9c0-0.1,0-0.1-0.1-0.3c-0.2,0.2-0.2,0-0.3,0
			c-0.1-0.1-0.3,0-0.4-0.1c-0.2,0.1-0.3,0.1-0.3-0.1c0,0.1,0,0.2,0,0.3c-0.1,0.1-0.2,0.1-0.3,0c-0.2-0.1-0.5,0.1-0.7,0
			c0,0,0.1,0,0.1,0.1c0,0.1-0.1,0.1-0.2,0.1c-0.1,0.1-0.2,0.2-0.2,0.2c0.2,0.3,0,0.6,0,0.9c0,0.2,0.2,0.6,0.4,0.8
			c0.1,0.1,0.5,0.1,0.6,0c0.2-0.1,0.1-0.2,0.2-0.3c0.1-0.2,0.1-0.2,0.3-0.2c0.5,0,0.1,0.4,0.1,0.6c0,0.2,0,0.3-0.1,0.5
			c0.1,0,0.1,0,0.2,0c0,0,0-0.1,0-0.1c0.1,0.1,0.3,0.2,0.4,0c0.1,0.1,0.2,0.2,0.3,0.4c0,0.2,0.2,0.3,0,0.3c-0.2,0,0,0.3,0,0.4
			c0.1,0.2,0.3,0.3,0.6,0.2c0,0.1,0,0.4-0.2,0.4c-0.1,0-0.3-0.2-0.3-0.4c0,0,0,0.1-0.1,0.1c-0.1-0.1-0.3-0.2-0.4-0.4
			c0,0-0.3-0.5-0.3-0.5c-0.2,0.1-0.5,0-0.6-0.1c-0.2-0.1-0.3-0.5-0.6-0.4c-0.2,0-0.3,0.1-0.5,0c-0.2-0.1-0.3-0.2-0.5-0.3
			c-0.2-0.1-0.5-0.2-0.6-0.4c-0.1-0.2,0-0.4-0.2-0.6c-0.1-0.1-0.3-0.4-0.4-0.4c0.1,0-0.1-0.4-0.2-0.4c-0.1-0.2-0.6-0.6-0.5-0.8
			c0,0-0.2-0.1-0.3-0.1c0,0.1,0.1,0.2,0.1,0.4c0.1,0.1,0.1,0.2,0.2,0.3c0.1,0.2,0.3,0.5,0.3,0.7c-0.2,0-0.1-0.2-0.2-0.3
			c-0.1-0.2-0.3-0.2-0.4-0.3c0,0,0,0,0.1,0c0-0.2-0.3-0.4-0.2-0.5c-0.2-0.1-0.2-0.4-0.3-0.5c-0.1-0.2-0.3-0.2-0.4-0.3
			c-0.1,0-0.5-0.6-0.3-0.6c-0.2,0.1-0.4-0.5-0.3-0.6c0,0,0,0,0,0c0-0.1,0-0.9,0.2-0.9c-0.1,0-0.2-0.3-0.1-0.4c0,0,0.2,0.1,0.2,0.2
			c0.1,0,0.1-0.1,0.1-0.2c0-0.1-0.2-0.2-0.2-0.2c0,0-0.5-0.3-0.5-0.3c0-0.1,0-0.2,0-0.2c-0.2,0.2-0.1-0.2-0.2-0.2
			c-0.1,0-0.1-0.1-0.1-0.1c0.7-1.1,1.6-2,2.8-2.6c0.1,0,0.2,0,0.3,0c0.2,0,0.3,0.2,0.5,0.3c0-0.1,0-0.2-0.1-0.2
			c0-0.1,0.2-0.1,0.3-0.1c0.1,0,0.3,0,0.4,0c-0.1-0.1-0.2-0.2-0.2-0.3c0,0,0,0-0.1,0.1c-0.1-0.1-0.4,0-0.5,0.1
			c-0.1,0-0.2,0.1-0.3,0.1c0,0-0.1,0-0.1,0c0.4-0.2,0.7-0.4,1.1-0.5c0.1,0,0.1,0.1,0.2,0.2c-0.1-0.1-0.1,0.2,0,0.3
			c0.1,0.2,0.4,0.1,0.6,0.1c0,0,0.5,0.1,0.4-0.1c0.1,0.1,0.1,0.3,0.2,0.4c0.1-0.1,0-0.2,0-0.3c0,0,0.2-0.1,0.3-0.1
			c0.1-0.1-0.1-0.1-0.1-0.2c-0.1-0.1-0.6-0.1-0.4-0.4c0.1-0.1,0.4,0,0.5,0c0.1,0.1,0.3,0.2,0.1,0.3c0.1,0,0.5,0.1,0.4,0.3
			c0-0.1,0.1-0.2,0.2-0.2c0.1,0,0.1,0.3,0.2,0.3c0.2,0.3,0.4-0.3,0.5-0.3C14.5,7.1,14.9,7,15,7.1c0.1,0,0.2,0.3,0.1,0.3
			c0.1,0.1,0.1,0.4-0.1,0.4c-0.2,0-0.4-0.2-0.5-0.1c-0.1,0.1-0.2,0.3-0.3,0.4c-0.2,0.2-0.4,0.2-0.6,0.1c0.1,0-0.2,0.3-0.2,0.3
			c-0.1,0.1-0.1,0.2-0.1,0.3c0,0.1,0,0.2-0.1,0.4c0.2-0.1,0.3,0.3,0.2,0.3c0.2,0,0.4,0,0.7,0c0.2,0.1,0.4,0.1,0.5,0.3
			c0-0.1,0.3,0,0.3,0c0.1,0.1,0.2,0.2,0.2,0.4c0,0.2,0.2,0.5,0.4,0.4c0,0,0.3-0.1,0.2-0.2c-0.1-0.1-0.2-0.3-0.1-0.4
			c0.1-0.1,0.3-0.2,0.4-0.3c0.1-0.3-0.3-0.2-0.3-0.4c0-0.1,0.2-0.2,0.1-0.3c0-0.1-0.2-0.4,0-0.4c0.1-0.1,0.7,0,0.8,0.1
			C16.7,8.6,17,8.7,17,8.8H17c0.1,0.1,0.2,0.3,0,0.3c0.1,0,0.4,0.1,0.2,0.2c0.1,0,0.1,0,0.2-0.1c0.1,0,0.1-0.1,0.2-0.1
			c0,0,0.2-0.2,0.2-0.2C18,8.9,18,9.1,18,9.2c0,0.1,0.2,0.1,0.2,0.2c0.1,0.2,0,0.4,0.3,0.5c0.1,0,0.3-0.1,0.3,0.1
			c0,0,0.1-0.1,0.1-0.1c0,0.2,0.1,0.4,0.3,0.3c0,0,0,0.2,0,0.3c-0.1,0.1-0.2,0.1-0.4,0.1c0,0-0.3,0.3-0.3,0.3
			c-0.2-0.2-0.4-0.2-0.6-0.1c-0.2,0-0.4,0.1-0.6,0.1c-0.1,0-0.2,0.1-0.3,0.2c0,0-0.1,0.3-0.2,0.3C17.1,11.3,17.1,11.2,17.2,11.1
			L17.2,11.1z M15.3,21.4c0-0.1,0-0.1,0-0.2c0-0.2,0.2-0.3,0.2-0.5c-0.1,0-0.2-0.2-0.1-0.3c0-0.2,0.2-0.3,0.3-0.5
			c0.1-0.1,0.2-0.4,0.1-0.6c-0.1-0.3-0.1-0.6-0.1-0.9c0,0.1,0.2,0,0.2,0.1c0-0.1,0.1-0.2,0.1-0.3c0-0.1,0.1-0.1,0.2-0.2
			c0.1-0.1,0.4-0.3,0.5-0.2c0.1,0.1-0.2,0.3,0,0.4c0-0.1,0-0.2,0.1-0.3c0.2-0.2,0.3,0,0.5,0.1c0.2,0.1,0.3,0.1,0.4,0.3
			c0,0,0.2-0.1,0.2-0.1c0.2,0,0.3,0.1,0.5,0.2c0.2,0.1,0.4,0.2,0.4,0.4c0.1,0,0.2,0.1,0.3,0.1c0.1,0,0.2,0,0.3,0.1
			C18.3,20.3,16.9,21.1,15.3,21.4L15.3,21.4z"/>
	</g>
	<g transform="translate(308 28)">
		<path class="st0" d="M3,0h22c1.7,0,3,1.3,3,3v22c0,1.7-1.3,3-3,3H3c-1.7,0-3-1.3-3-3V3C0,1.3,1.3,0,3,0z"/>
		<path class="st15" d="M14,5c-5,0-9,4-9,9s4,9,9,9s9-4,9-9S19,5,14,5z M17.2,11.1c0.1-0.1,0.3-0.2,0.5-0.1c0.1,0,0.2,0.1,0.1,0.2
			c-0.1,0-0.2,0-0.3,0c0.1,0,0.3,0.1,0.2,0.2c0.3,0.2-0.1,0.4-0.3,0.4c0.1,0-0.2,0.2-0.2,0.2c-0.1,0.1-0.2,0.1-0.3,0.2
			c-0.1,0.1,0,0.4-0.1,0.3c-0.1,0.2-0.3,0.1-0.5,0.2c0.1,0.1-0.1,0.3-0.3,0.2c-0.1,0-0.1,0.2-0.2,0.2c0,0.1,0.1,0.1,0,0.2
			c0,0,0.2,0.1,0.2,0.1c0,0.1-0.1,0.1-0.1,0.1c0.1,0.2-0.1,0.3-0.2,0.4c-0.1,0.1-0.4,0.2-0.4,0.2c-0.2,0.2-0.4,0.5,0,0.6
			c0,0,0,0.4,0,0.4c0,0.1,0.1,0.6-0.2,0.4C15.1,15.3,15,15,15,14.9c0-0.1,0-0.1-0.1-0.3c-0.2,0.2-0.2,0-0.3,0
			c-0.1-0.1-0.3,0-0.4-0.1c-0.2,0.1-0.3,0.1-0.3-0.1c0,0.1,0,0.2,0,0.3c-0.1,0.1-0.2,0.1-0.3,0c-0.2-0.1-0.5,0.1-0.7,0
			c0,0,0.1,0,0.1,0.1c0,0.1-0.1,0.1-0.2,0.1c-0.1,0.1-0.2,0.2-0.2,0.2c0.2,0.3,0,0.6,0,0.9c0,0.2,0.2,0.6,0.4,0.8
			c0.1,0.1,0.5,0.1,0.6,0c0.2-0.1,0.1-0.2,0.2-0.3c0.1-0.2,0.1-0.2,0.3-0.2c0.5,0,0.1,0.4,0.1,0.6c0,0.2,0,0.3-0.1,0.5
			c0.1,0,0.1,0,0.2,0c0,0,0-0.1,0-0.1c0.1,0.1,0.3,0.2,0.4,0c0.1,0.1,0.2,0.2,0.3,0.4c0,0.2,0.2,0.3,0,0.3c-0.2,0,0,0.3,0,0.4
			c0.1,0.2,0.3,0.3,0.6,0.2c0,0.1,0,0.4-0.2,0.4c-0.1,0-0.3-0.2-0.3-0.4c0,0,0,0.1-0.1,0.1c-0.1-0.1-0.3-0.2-0.4-0.4
			c0,0-0.3-0.5-0.3-0.5c-0.2,0.1-0.5,0-0.6-0.1c-0.2-0.1-0.3-0.5-0.6-0.4c-0.2,0-0.3,0.1-0.5,0c-0.2-0.1-0.3-0.2-0.5-0.3
			c-0.2-0.1-0.5-0.2-0.6-0.4c-0.1-0.2,0-0.4-0.2-0.6c-0.1-0.1-0.3-0.4-0.4-0.4c0.1,0-0.1-0.4-0.2-0.4c-0.1-0.2-0.6-0.6-0.5-0.8
			c0,0-0.2-0.1-0.3-0.1c0,0.1,0.1,0.2,0.1,0.4c0.1,0.1,0.1,0.2,0.2,0.3c0.1,0.2,0.3,0.5,0.3,0.7c-0.2,0-0.1-0.2-0.2-0.3
			c-0.1-0.2-0.3-0.2-0.4-0.3c0,0,0,0,0.1,0c0-0.2-0.3-0.4-0.2-0.5c-0.2-0.1-0.2-0.4-0.3-0.5c-0.1-0.2-0.3-0.2-0.4-0.3
			c-0.1,0-0.5-0.6-0.3-0.6c-0.2,0.1-0.4-0.5-0.3-0.6c0,0,0,0,0,0c0-0.1,0-0.9,0.2-0.9c-0.1,0-0.2-0.3-0.1-0.4c0,0,0.2,0.1,0.2,0.2
			c0.1,0,0.1-0.1,0.1-0.2c0-0.1-0.2-0.2-0.2-0.2c0,0-0.5-0.3-0.5-0.3c0-0.1,0-0.2,0-0.2c-0.2,0.2-0.1-0.2-0.2-0.2
			c-0.1,0-0.1-0.1-0.1-0.1c0.7-1.1,1.6-2,2.8-2.6c0.1,0,0.2,0,0.3,0c0.2,0,0.3,0.2,0.5,0.3c0-0.1,0-0.2-0.1-0.2
			c0-0.1,0.2-0.1,0.3-0.1c0.1,0,0.3,0,0.4,0c-0.1-0.1-0.2-0.2-0.2-0.3c0,0,0,0-0.1,0.1c-0.1-0.1-0.4,0-0.5,0.1
			c-0.1,0-0.2,0.1-0.3,0.1c0,0-0.1,0-0.1,0c0.4-0.2,0.7-0.4,1.1-0.5c0.1,0,0.1,0.1,0.2,0.2c-0.1-0.1-0.1,0.2,0,0.3
			c0.1,0.2,0.4,0.1,0.6,0.1c0,0,0.5,0.1,0.4-0.1c0.1,0.1,0.1,0.3,0.2,0.4c0.1-0.1,0-0.2,0-0.3c0,0,0.2-0.1,0.3-0.1
			c0.1-0.1-0.1-0.1-0.1-0.2c-0.1-0.1-0.6-0.1-0.4-0.4c0.1-0.1,0.4,0,0.5,0c0.1,0.1,0.3,0.2,0.1,0.3c0.1,0,0.5,0.1,0.4,0.3
			c0-0.1,0.1-0.2,0.2-0.2c0.1,0,0.1,0.3,0.2,0.3c0.2,0.3,0.4-0.3,0.5-0.3C14.5,7.1,14.9,7,15,7.1c0.1,0,0.2,0.3,0.1,0.3
			c0.1,0.1,0.1,0.4-0.1,0.4c-0.2,0-0.4-0.2-0.5-0.1c-0.1,0.1-0.2,0.3-0.3,0.4c-0.2,0.2-0.4,0.2-0.6,0.1c0.1,0-0.2,0.3-0.2,0.3
			c-0.1,0.1-0.1,0.2-0.1,0.3c0,0.1,0,0.2-0.1,0.4c0.2-0.1,0.3,0.3,0.2,0.3c0.2,0,0.4,0,0.7,0c0.2,0.1,0.4,0.1,0.5,0.3
			c0-0.1,0.3,0,0.3,0c0.1,0.1,0.2,0.2,0.2,0.4c0,0.2,0.2,0.5,0.4,0.4c0,0,0.3-0.1,0.2-0.2c-0.1-0.1-0.2-0.3-0.1-0.4
			c0.1-0.1,0.3-0.2,0.4-0.3c0.1-0.3-0.3-0.2-0.3-0.4c0-0.1,0.2-0.2,0.1-0.3c0-0.1-0.2-0.4,0-0.4c0.1-0.1,0.7,0,0.8,0.1
			C16.7,8.6,17,8.7,17,8.8H17c0.1,0.1,0.2,0.3,0,0.3c0.1,0,0.4,0.1,0.2,0.2c0.1,0,0.1,0,0.2-0.1c0.1,0,0.1-0.1,0.2-0.1
			c0,0,0.2-0.2,0.2-0.2C18,8.9,18,9.1,18,9.2c0,0.1,0.2,0.1,0.2,0.2c0.1,0.2,0,0.4,0.3,0.5c0.1,0,0.3-0.1,0.3,0.1
			c0,0,0.1-0.1,0.1-0.1c0,0.2,0.1,0.4,0.3,0.3c0,0,0,0.2,0,0.3c-0.1,0.1-0.2,0.1-0.4,0.1c0,0-0.3,0.3-0.3,0.3
			c-0.2-0.2-0.4-0.2-0.6-0.1c-0.2,0-0.4,0.1-0.6,0.1c-0.1,0-0.2,0.1-0.3,0.2c0,0-0.1,0.3-0.2,0.3C17.1,11.3,17.1,11.2,17.2,11.1
			L17.2,11.1z M15.3,21.4c0-0.1,0-0.1,0-0.2c0-0.2,0.2-0.3,0.2-0.5c-0.1,0-0.2-0.2-0.1-0.3c0-0.2,0.2-0.3,0.3-0.5
			c0.1-0.1,0.2-0.4,0.1-0.6c-0.1-0.3-0.1-0.6-0.1-0.9c0,0.1,0.2,0,0.2,0.1c0-0.1,0.1-0.2,0.1-0.3c0-0.1,0.1-0.1,0.2-0.2
			c0.1-0.1,0.4-0.3,0.5-0.2c0.1,0.1-0.2,0.3,0,0.4c0-0.1,0-0.2,0.1-0.3c0.2-0.2,0.3,0,0.5,0.1c0.2,0.1,0.3,0.1,0.4,0.3
			c0,0,0.2-0.1,0.2-0.1c0.2,0,0.3,0.1,0.5,0.2c0.2,0.1,0.4,0.2,0.4,0.4c0.1,0,0.2,0.1,0.3,0.1c0.1,0,0.2,0,0.3,0.1
			C18.3,20.3,16.9,21.1,15.3,21.4L15.3,21.4z"/>
	</g>
	<g transform="translate(336)">
		<path class="st0" d="M3,0h22c1.7,0,3,1.3,3,3v22c0,1.7-1.3,3-3,3H3c-1.7,0-3-1.3-3-3V3C0,1.3,1.3,0,3,0z"/>
		<path class="st1" d="M9.1,10.5H5.2V22h3.9V10.5z M9.3,7c0-1.1-0.8-2-2.2-2C5.9,5,5,5.9,5,7c0,1.1,0.8,2,2.1,2h0
			C8.5,9,9.3,8.1,9.3,7z M23,15.4c0-3.5-1.9-5.2-4.4-5.2c-2.1,0-3,1.1-3.5,1.9h0v-1.7h-3.9c0,0,0,1.1,0,11.5h3.9v-6.4
			c0-0.3,0-0.7,0.1-0.9c0.3-0.7,0.9-1.4,2-1.4c1.4,0,2,1.1,2,2.6V22H23V15.4z"/>
	</g>
	<g transform="translate(336 28)">
		<path class="st0" d="M3,0h22c1.7,0,3,1.3,3,3v22c0,1.7-1.3,3-3,3H3c-1.7,0-3-1.3-3-3V3C0,1.3,1.3,0,3,0z"/>
		<path class="st16" d="M7,5h14c1.1,0,2,0.9,2,2v14c0,1.1-0.9,2-2,2H7c-1.1,0-2-0.9-2-2V7C5,5.9,5.9,5,7,5z"/>
		<path class="st1" d="M10.7,11.6H8.1V19h2.6C10.7,19,10.7,11.6,10.7,11.6z M10.9,9.3c0-0.7-0.6-1.3-1.4-1.3C8.6,8,8,8.6,8,9.3
			c0,0.7,0.6,1.3,1.4,1.3h0C10.3,10.6,10.9,10,10.9,9.3z M20,14.7c0-2.3-1.3-3.3-3-3.3c-1.4,0-2,0.7-2.3,1.3h0v-1.1h-2.6
			c0,0,0,0.7,0,7.4h2.6v-4.1c0-0.2,0-0.4,0.1-0.6c0.2-0.4,0.6-0.9,1.3-0.9c0.9,0,1.3,0.7,1.3,1.7v4H20C20,19,20,14.7,20,14.7z"/>
	</g>
</g>
</svg>
